<?xml version="1.0" encoding="UTF-8"?>
<svg id="Layer_2" data-name="Layer 2" xmlns="http://www.w3.org/2000/svg" viewBox="0 0 48.5 5.14">
  <defs>
    <style>
      .cls-1 {
        fill: #aaa;
      }
    </style>
  </defs>
  <g id="Layer_2-2" data-name="Layer 2">
    <g id="corvex-logo">
      <path class="cls-1" d="M3.72,0C5.16,0,6.17.23,6.76.49v1.2c-.7-.34-1.8-.61-3.05-.61-1.05,0-1.67.22-1.95.5-.23.23-.37.51-.37,1s.14.78.37,1c.28.28.91.5,1.95.5,1.26,0,2.36-.25,3.05-.57v1.15c-.59.27-1.61.49-3.04.49-1.71,0-2.64-.4-3.1-.85-.42-.42-.63-1-.63-1.72S.21,1.27.63.86C1.09.41,2.02,0,3.72,0h0Z"/>
      <path class="cls-1" d="M8.34.86c.46-.46,1.32-.86,3.34-.86s2.88.4,3.34.86c.45.45.64,1.02.64,1.71s-.19,1.26-.64,1.71c-.46.46-1.32.86-3.34.86s-2.88-.4-3.34-.86-.64-1.02-.64-1.71.19-1.26.64-1.71ZM13.91,1.55c-.28-.28-.87-.52-2.23-.52s-1.95.24-2.23.52c-.2.2-.36.51-.36,1.02s.16.81.36,1.02c.28.28.87.52,2.23.52s1.95-.24,2.23-.52c.21-.2.36-.51.36-1.02s-.16-.81-.36-1.02Z"/>
      <path class="cls-1" d="M23.31,2.89c-.27.27-.66.45-1.48.51l2.41,1.54v.02h-1.99l-2.3-1.54h-1.71v1.54h-1.36V.18h4.16c1.44,0,1.93.17,2.28.52.3.3.38.72.38,1.09s-.08.77-.4,1.1ZM21.02,1.27h-2.76v1.15h2.79c.63,0,1-.05,1.18-.23.09-.09.14-.23.14-.36,0-.16-.04-.27-.14-.38-.15-.15-.47-.18-1.17-.18h-.03Z"/>
      <path class="cls-1" d="M29.2,4.95h-1.67L24.23.18h1.65l2.52,3.76L30.92.18h1.58s-3.3,4.77-3.3,4.77Z"/>
      <path class="cls-1" d="M39.6,2.03v1.02h-4.97v.82h5.09v1.09h-6.43V.18h6.43v1.09h-5.09v.77h4.97Z"/>
      <path class="cls-1" d="M42.38,4.95h-1.81v-.02l2.98-2.35-2.97-2.39v-.02h1.98l2.01,1.69,2.06-1.69h1.81v.02l-2.94,2.32,3.01,2.42v.02h-1.98l-2.05-1.72-2.1,1.72Z"/>
    </g>
  </g>
</svg>